<svg width="21" height="20" viewBox="0 0 21 20" fill="none" xmlns="http://www.w3.org/2000/svg">
<g opacity="0.8">
<rect x="1.55054" y="1.24951" width="17.4901" height="17.4901" rx="5.9966" fill="url(#paint0_radial_42_481)"/>
<rect x="1.55054" y="1.24951" width="17.4901" height="17.4901" rx="5.9966" fill="url(#paint1_radial_42_481)"/>
<rect x="1.55054" y="1.24951" width="17.4901" height="17.4901" rx="5.9966" fill="#666666"/>
<path d="M14.6681 6.55907C14.6681 7.07655 14.2486 7.49604 13.7311 7.49604C13.2137 7.49604 12.7942 7.07655 12.7942 6.55907C12.7942 6.0416 13.2137 5.62211 13.7311 5.62211C14.2486 5.62211 14.6681 6.0416 14.6681 6.55907Z" fill="white"/>
<path fill-rule="evenodd" clip-rule="evenodd" d="M10.2956 13.1179C12.0205 13.1179 13.4188 11.7195 13.4188 9.99463C13.4188 8.26971 12.0205 6.8714 10.2956 6.8714C8.57068 6.8714 7.17236 8.26971 7.17236 9.99463C7.17236 11.7195 8.57068 13.1179 10.2956 13.1179ZM10.2956 11.8686C11.3305 11.8686 12.1695 11.0296 12.1695 9.99463C12.1695 8.95968 11.3305 8.12069 10.2956 8.12069C9.26064 8.12069 8.42165 8.95968 8.42165 9.99463C8.42165 11.0296 9.26064 11.8686 10.2956 11.8686Z" fill="white"/>
<path fill-rule="evenodd" clip-rule="evenodd" d="M4.04913 9.74477C4.04913 7.64576 4.04913 6.59626 4.45763 5.79454C4.81695 5.08934 5.3903 4.51598 6.09551 4.15666C6.89722 3.74817 7.94673 3.74817 10.0457 3.74817H10.5454C12.6445 3.74817 13.694 3.74817 14.4957 4.15666C15.2009 4.51598 15.7742 5.08934 16.1336 5.79454C16.542 6.59626 16.542 7.64576 16.542 9.74477V10.2445C16.542 12.3435 16.542 13.393 16.1336 14.1947C15.7742 14.8999 15.2009 15.4733 14.4957 15.8326C13.694 16.2411 12.6445 16.2411 10.5454 16.2411H10.0457C7.94673 16.2411 6.89722 16.2411 6.09551 15.8326C5.3903 15.4733 4.81695 14.8999 4.45763 14.1947C4.04913 13.393 4.04913 12.3435 4.04913 10.2445V9.74477ZM10.0457 4.99746H10.5454C11.6156 4.99746 12.343 4.99843 12.9053 5.04437C13.453 5.08912 13.7331 5.17023 13.9285 5.26979C14.3986 5.50934 14.7809 5.89157 15.0204 6.36171C15.12 6.5571 15.2011 6.83719 15.2458 7.3849C15.2918 7.9472 15.2928 8.67465 15.2928 9.74477V10.2445C15.2928 11.3146 15.2918 12.0421 15.2458 12.6043C15.2011 13.1521 15.12 13.4322 15.0204 13.6275C14.7809 14.0977 14.3986 14.4799 13.9285 14.7195C13.7331 14.819 13.453 14.9001 12.9053 14.9449C12.343 14.9908 11.6156 14.9918 10.5454 14.9918H10.0457C8.97561 14.9918 8.24816 14.9908 7.68587 14.9449C7.13816 14.9001 6.85806 14.819 6.66267 14.7195C6.19254 14.4799 5.8103 14.0977 5.57075 13.6275C5.4712 13.4322 5.39009 13.1521 5.34534 12.6043C5.2994 12.0421 5.29842 11.3146 5.29842 10.2445V9.74477C5.29842 8.67465 5.2994 7.9472 5.34534 7.3849C5.39009 6.83719 5.4712 6.5571 5.57075 6.36171C5.8103 5.89157 6.19254 5.50934 6.66267 5.26979C6.85806 5.17023 7.13816 5.08912 7.68587 5.04437C8.24816 4.99843 8.97561 4.99746 10.0457 4.99746Z" fill="white"/>
</g>
<defs>
<radialGradient id="paint0_radial_42_481" cx="0" cy="0" r="1" gradientUnits="userSpaceOnUse" gradientTransform="translate(7.79699 14.3671) rotate(-55.3758) scale(15.9407)">
<stop stop-color="#B13589"/>
<stop offset="0.79309" stop-color="#C62F94"/>
<stop offset="1" stop-color="#8A3AC8"/>
</radialGradient>
<radialGradient id="paint1_radial_42_481" cx="0" cy="0" r="1" gradientUnits="userSpaceOnUse" gradientTransform="translate(7.17235 19.3642) rotate(-65.1363) scale(14.1134)">
<stop stop-color="#E0E8B7"/>
<stop offset="0.444662" stop-color="#FB8A2E"/>
<stop offset="0.71474" stop-color="#E2425C"/>
<stop offset="1" stop-color="#E2425C" stop-opacity="0"/>
</radialGradient>
</defs>
</svg>
