<svg width="21" height="20" viewBox="0 0 21 20" fill="none" xmlns="http://www.w3.org/2000/svg">
<g opacity="0.8">
<path d="M7.68547 17.4904C5.66474 17.4904 3.78108 16.9026 2.19562 15.8886C3.54172 15.9757 5.9173 15.7671 7.39491 14.3577C5.1721 14.2557 4.16966 12.5509 4.03891 11.8223C4.22777 11.8952 5.12852 11.9826 5.637 11.7786C3.08005 11.1375 2.68779 8.89359 2.77496 8.20876C3.25439 8.54389 4.06796 8.66045 4.38758 8.63131C2.00497 6.92652 2.86213 4.36206 3.28345 3.80836C4.9933 6.17722 7.55583 7.50765 10.726 7.58166C10.6662 7.3195 10.6347 7.04657 10.6347 6.76625C10.6347 4.75443 12.2608 3.12354 14.2667 3.12354C15.3148 3.12354 16.2591 3.56875 16.9221 4.2809C17.6224 4.11679 18.6765 3.73261 19.1917 3.40038C18.932 4.33291 18.1234 5.11084 17.6343 5.39917C17.6303 5.38932 17.6384 5.40898 17.6343 5.39917C18.0639 5.33418 19.2264 5.11076 19.6857 4.79918C19.4586 5.32307 18.6013 6.19412 17.8978 6.68178C18.0287 12.4545 13.6119 17.4904 7.68547 17.4904Z" fill="#666666"/>
</g>
</svg>
