<svg width="18" height="15" viewBox="0 0 18 15" fill="none" xmlns="http://www.w3.org/2000/svg">
<path d="M5.68547 14.4904C3.66474 14.4904 1.78108 13.9026 0.195618 12.8886C1.54172 12.9757 3.9173 12.7671 5.3949 11.3577C3.1721 11.2557 2.16966 9.55087 2.03891 8.82233C2.22777 8.89518 3.12852 8.98261 3.637 8.77861C1.08005 8.1375 0.687793 5.89359 0.774962 5.20876C1.25439 5.54389 2.06796 5.66045 2.38758 5.63131C0.00497144 3.92652 0.862131 1.36206 1.28345 0.808365C2.9933 3.17722 5.55583 4.50765 8.72602 4.58166C8.66624 4.3195 8.63468 4.04657 8.63468 3.76625C8.63468 1.75443 10.2608 0.123535 12.2667 0.123535C13.3148 0.123535 14.2591 0.568754 14.9221 1.2809C15.6224 1.11679 16.6765 0.732607 17.1917 0.400381C16.932 1.33291 16.1234 2.11084 15.6343 2.39917C15.6384 2.40898 15.6303 2.38932 15.6343 2.39917C16.0639 2.33418 17.2264 2.11076 17.6857 1.79918C17.4586 2.32307 16.6013 3.19412 15.8978 3.68178C16.0287 9.45453 11.6119 14.4904 5.68547 14.4904Z" fill="#666666"/>
</svg>
